<?xml version="1.0" encoding="utf-8"?>
<!-- Generator: Adobe Illustrator 25.2.1, SVG Export Plug-In . SVG Version: 6.00 Build 0)  -->
<svg version="1.1" id="Layer_1" xmlns="http://www.w3.org/2000/svg" xmlns:xlink="http://www.w3.org/1999/xlink" x="0px" y="0px"
	 viewBox="0 0 500 500" style="enable-background:new 0 0 500 500;" xml:space="preserve">
<style type="text/css">
	.st0{fill:#FFFFFF;}
	.st1{fill:#FF6600;}
	.st2{fill:#FFFFFF;stroke:#FF6600;stroke-width:2;stroke-miterlimit:10;}
	.st3{font-family:'Didot-Bold';}
	.st4{font-size:20.5969px;}
</style>
<g id="background_white_1_">
	<path class="st0" d="M427.7,500H73.3C33.4,500,1,467.6,1,427.7V73.3C1,33.4,33.4,1,73.3,1h354.4C467.6,1,500,33.4,500,73.3v354.4
		C500,467.6,467.6,500,427.7,500z"/>
</g>
<g id="background_orange_1_">
	<path class="st1" d="M411.6,468.8H88.4c-31.6,0-57.2-25.6-57.2-57.2V88.7c0-31.6,25.6-57.2,57.2-57.2h323.1
		c31.6,0,57.2,25.6,57.2,57.2v322.8C468.8,443.2,443.1,468.8,411.6,468.8z"/>
</g>
<g>
	<g>
		<path class="st1" d="M348.6,379.6l-171.2,30.4c-9.1,1.6-17.9-4.5-19.5-13.6l-45.8-258.4c-1.6-9.1,4.5-17.9,13.6-19.5L297,88
			c9.1-1.6,17.9,4.5,19.5,13.6l45.8,258.4C363.9,369.2,357.8,377.9,348.6,379.6z"/>
		<path class="st2" d="M348.6,379.6l-171.2,30.4c-9.1,1.6-17.9-4.5-19.5-13.6l-45.8-258.4c-1.6-9.1,4.5-17.9,13.6-19.5L297,88
			c9.1-1.6,17.9,4.5,19.5,13.6l45.8,258.4C363.9,369.2,357.8,377.9,348.6,379.6z"/>
		<path class="st1" d="M247.4,250.2c-2.4-5.9-9.9-12-17.1-12.4c-7.5-0.4-12.3,0.5-17.3,5.3c-1.5,1.4-3.9,3.8-6,7.1l1.7,9.5
			c2.3-8.6,9.5-16.8,19.3-16.1c16.7,1.3,16.1,13,15,17.9c-2,8.8-14,14.6-19.3,7.5c-5.7-7.8,3.5-10.8,3.5-10.8s-2,2.8,1.6,5.4
			c2.5,1.8,6.2-0.9,7-5c0.6-3.6-2.8-7.8-8.8-7.2c-5,0.4-11.6,5.4-11.1,13c0.6,7.2,4.2,9.5,9.4,11.9c5.1,2.3,15.1,1.7,19.7-4.7
			C249.9,264.5,250.6,258,247.4,250.2 M202.3,223.8l3.3,18.6c2.4-3,4.5-4.6,4.5-4.7c9.1-7.7,18.6-6.4,24.2-5.6
			c8.8,1.2,16.5,6.5,20.5,12.8c4.7,7.3,4.5,22.8-5.3,32.3c-0.4,0.4-0.9,0.8-1.3,1.2l23.9-4.2l-10.8-60.8L202.3,223.8z M211.3,274.6
			l1.3,7.2c0.4,0.2,0.8,0.4,1.2,0.6c-0.4-0.1-0.8-0.2-1.2-0.3l0.5,2.5l10.4-1.8c-0.8-0.3-1.6-0.6-2.3-0.9
			C217.7,280.3,213.9,277.9,211.3,274.6z"/>
		<g>
			<path class="st1" d="M301.7,130.5c-0.8-2-3.4-4.2-5.9-4.3c-2.6-0.1-4.3,0.2-6,1.8c-0.5,0.5-1.4,1.3-2.1,2.5l0.6,3.3
				c0.8-3,3.3-5.8,6.7-5.6c5.8,0.4,5.6,4.5,5.2,6.2c-0.7,3.1-4.9,5.1-6.7,2.6c-2-2.7,1.2-3.8,1.2-3.8s-0.7,1,0.6,1.9
				c0.9,0.6,2.2-0.3,2.4-1.7c0.2-1.2-1-2.7-3-2.5c-1.7,0.2-4,1.9-3.8,4.5c0.2,2.5,1.5,3.3,3.2,4.1c1.8,0.8,5.2,0.6,6.8-1.6
				C302.5,135.4,302.8,133.2,301.7,130.5 M286,121.3l1.1,6.4c0.8-1,1.5-1.6,1.6-1.6c3.2-2.7,6.4-2.2,8.4-2c3,0.4,5.7,2.3,7.1,4.4
				c1.6,2.5,1.6,7.9-1.8,11.2c-0.1,0.1-0.3,0.3-0.4,0.4l8.3-1.5l-3.7-21L286,121.3z M289.2,138.9l0.4,2.5c0.1,0.1,0.3,0.2,0.4,0.2
				c-0.1,0-0.3-0.1-0.4-0.1l0.2,0.9l3.6-0.6c-0.3-0.1-0.6-0.2-0.8-0.3C291.4,140.9,290.1,140.1,289.2,138.9z"/>
			<text transform="matrix(0.9846 -0.1746 0.1746 0.9846 288.4317 117.5836)" class="st1 st3 st4">A</text>
		</g>
		<g>
			<path class="st1" d="M172.8,367.3c0.8,2,3.4,4.2,5.9,4.3c2.6,0.1,4.3-0.2,6-1.8c0.5-0.5,1.4-1.3,2.1-2.5l-0.6-3.3
				c-0.8,3-3.3,5.8-6.7,5.6c-5.8-0.4-5.6-4.5-5.2-6.2c0.7-3.1,4.9-5.1,6.7-2.6c2,2.7-1.2,3.8-1.2,3.8s0.7-1-0.6-1.9
				c-0.9-0.6-2.2,0.3-2.4,1.7c-0.2,1.2,1,2.7,3,2.5c1.7-0.2,4-1.9,3.8-4.5c-0.2-2.5-1.5-3.3-3.2-4.1c-1.8-0.8-5.2-0.6-6.8,1.6
				C171.9,362.3,171.7,364.6,172.8,367.3 M188.4,376.4l-1.1-6.4c-0.8,1-1.5,1.6-1.6,1.6c-3.2,2.7-6.4,2.2-8.4,2
				c-3-0.4-5.7-2.3-7.1-4.4c-1.6-2.5-1.6-7.9,1.8-11.2c0.1-0.1,0.3-0.3,0.4-0.4l-8.3,1.5l3.7,21L188.4,376.4z M185.3,358.8l-0.4-2.5
				c-0.1-0.1-0.3-0.2-0.4-0.2c0.1,0,0.3,0.1,0.4,0.1l-0.2-0.9l-3.6,0.6c0.3,0.1,0.6,0.2,0.8,0.3
				C183.1,356.9,184.4,357.7,185.3,358.8z"/>
			<text transform="matrix(-0.9846 0.1746 -0.1746 -0.9846 186.0125 380.1615)" class="st1 st3 st4">A</text>
		</g>
	</g>
	<g>
		<path class="st1" d="M351.6,395.7L178,405.3c-9.3,0.5-17.2-6.6-17.7-15.9l-14.4-262.1c-0.5-9.3,6.6-17.2,15.9-17.7l173.6-9.6
			c9.3-0.5,17.2,6.6,17.7,15.9L367.5,378C368,387.3,360.9,395.2,351.6,395.7z"/>
		<path class="st2" d="M351.6,395.7L178,405.3c-9.3,0.5-17.2-6.6-17.7-15.9l-14.4-262.1c-0.5-9.3,6.6-17.2,15.9-17.7l173.6-9.6
			c9.3-0.5,17.2,6.6,17.7,15.9L367.5,378C368,387.3,360.9,395.2,351.6,395.7z"/>
		<path class="st1" d="M266.7,255.1c-1.6-6.1-8.4-13.1-15.5-14.3c-7.4-1.3-12.3-1-17.8,3.2c-1.6,1.2-4.4,3.3-6.8,6.4l0.5,9.6
			c3.3-8.3,11.4-15.5,21.1-13.6c16.4,3.3,14.4,14.8,12.8,19.5c-3,8.5-15.7,12.8-20,5.1c-4.8-8.4,4.7-10.3,4.7-10.3s-2.4,2.6,0.9,5.6
			c2.3,2.1,6.3-0.1,7.5-4.1c1.1-3.5-1.9-8.1-7.8-8.2c-5-0.2-12.2,4-12.5,11.6c-0.3,7.2,3,10,7.9,12.9c4.8,2.9,14.8,3.5,20.1-2.3
			C267.4,269.6,268.9,263.3,266.7,255.1 M225,223.5l1,18.9c2.7-2.7,5-4,5.1-4.1c10-6.6,19.2-4.1,24.7-2.7
			c8.6,2.2,15.6,8.5,18.8,15.2c3.8,7.8,1.7,23.1-9.1,31.4c-0.5,0.4-0.9,0.7-1.4,1l24.3-1.3l-3.4-61.6L225,223.5z M227.8,275l0.4,7.3
			c0.4,0.3,0.8,0.5,1.2,0.7c-0.3-0.1-0.7-0.3-1.1-0.5l0.1,2.6l10.6-0.6c-0.8-0.4-1.5-0.8-2.2-1.2C233.5,281.5,230.1,278.6,227.8,275
			z"/>
		<g>
			<path class="st1" d="M334.9,142.8c-0.6-2.1-2.9-4.5-5.4-5c-2.6-0.4-4.3-0.4-6.2,1.1c-0.6,0.4-1.5,1.1-2.4,2.2l0.2,3.3
				c1.1-2.9,4-5.4,7.3-4.7c5.7,1.1,5,5.1,4.4,6.8c-1,2.9-5.4,4.4-6.9,1.8c-1.7-2.9,1.6-3.6,1.6-3.6s-0.8,0.9,0.3,1.9
				c0.8,0.7,2.2,0,2.6-1.4c0.4-1.2-0.7-2.8-2.7-2.9c-1.7-0.1-4.2,1.4-4.3,4c-0.1,2.5,1.1,3.5,2.7,4.5c1.7,1,5.1,1.2,7-0.8
				C335.2,147.8,335.7,145.6,334.9,142.8 M320.5,131.8l0.4,6.5c0.9-0.9,1.7-1.4,1.8-1.4c3.5-2.3,6.7-1.4,8.5-0.9
				c3,0.8,5.4,2.9,6.5,5.3c1.3,2.7,0.6,8-3.2,10.9c-0.2,0.1-0.3,0.2-0.5,0.3l8.4-0.5l-1.2-21.3L320.5,131.8z M321.5,149.7l0.1,2.5
				c0.1,0.1,0.3,0.2,0.4,0.3c-0.1,0-0.3-0.1-0.4-0.2l0,0.9l3.7-0.2c-0.3-0.1-0.5-0.3-0.8-0.4C323.4,151.9,322.2,150.9,321.5,149.7z"
				/>
			<text transform="matrix(0.9985 -5.494796e-02 5.494796e-02 0.9985 323.3183 128.4179)" class="st1 st3 st4">A</text>
		</g>
		<g>
			<path class="st1" d="M178.5,362.4c0.6,2.1,2.9,4.5,5.4,5c2.6,0.4,4.3,0.4,6.2-1.1c0.6-0.4,1.5-1.1,2.4-2.2l-0.2-3.3
				c-1.1,2.9-4,5.4-7.3,4.7c-5.7-1.1-5-5.1-4.4-6.8c1-2.9,5.4-4.4,6.9-1.8c1.7,2.9-1.6,3.6-1.6,3.6s0.8-0.9-0.3-1.9
				c-0.8-0.7-2.2,0-2.6,1.4c-0.4,1.2,0.7,2.8,2.7,2.9c1.7,0.1,4.2-1.4,4.3-4c0.1-2.5-1.1-3.5-2.7-4.5c-1.7-1-5.1-1.2-7,0.8
				C178.2,357.4,177.7,359.6,178.5,362.4 M192.9,373.4l-0.4-6.5c-0.9,0.9-1.7,1.4-1.8,1.4c-3.5,2.3-6.7,1.4-8.5,0.9
				c-3-0.8-5.4-2.9-6.5-5.2c-1.3-2.7-0.6-8,3.2-10.9c0.2-0.1,0.3-0.2,0.5-0.3l-8.4,0.5l1.2,21.3L192.9,373.4z M191.9,355.5l-0.1-2.5
				c-0.1-0.1-0.3-0.2-0.4-0.3c0.1,0,0.3,0.1,0.4,0.2l0-0.9l-3.7,0.2c0.3,0.1,0.5,0.3,0.8,0.4C190,353.3,191.2,354.3,191.9,355.5z"/>
			<text transform="matrix(-0.9985 5.494796e-02 -5.494796e-02 -0.9985 190.0784 376.7794)" class="st1 st3 st4">A</text>
		</g>
	</g>
	<g>
		<path class="st1" d="M353,412.2l-173.5-11.4c-9.3-0.6-16.3-8.6-15.7-17.9L181,121.1c0.6-9.3,8.6-16.3,17.9-15.7l173.5,11.4
			c9.3,0.6,16.3,8.6,15.7,17.9l-17.2,261.9C370.3,405.8,362.3,412.8,353,412.2z"/>
		<path class="st2" d="M353,412.2l-173.5-11.4c-9.3-0.6-16.3-8.6-15.7-17.9L181,121.1c0.6-9.3,8.6-16.3,17.9-15.7l173.5,11.4
			c9.3,0.6,16.3,8.6,15.7,17.9l-17.2,261.9C370.3,405.8,362.3,412.8,353,412.2z"/>
		<path class="st1" d="M285.6,262.4c-0.9-6.3-6.8-14-13.7-16.1c-7.2-2.1-12.1-2.5-18.1,1c-1.8,1-4.7,2.8-7.6,5.5l-0.6,9.6
			c4.3-7.8,13.2-14,22.6-11c15.9,5.2,12.6,16.4,10.3,20.9c-4,8.1-17.1,10.8-20.5,2.6c-3.7-8.9,5.9-9.7,5.9-9.7s-2.7,2.3,0.3,5.6
			c2,2.4,6.3,0.6,7.9-3.2c1.5-3.3-0.9-8.2-6.8-9.1c-4.9-0.8-12.6,2.5-13.9,10c-1.2,7.1,1.8,10.3,6.3,13.7c4.4,3.5,14.3,5.3,20.3,0.1
			C284.6,276.9,286.8,270.8,285.6,262.4 M248,226l-1.2,18.9c3-2.3,5.4-3.4,5.5-3.5c10.7-5.3,19.6-1.7,24.8,0.3
			c8.3,3.2,14.5,10.3,16.9,17.3c2.8,8.2-1.1,23.2-12.8,30.1c-0.5,0.3-1,0.6-1.5,0.8l24.3,1.6l4-61.6L248,226z M244.6,277.5l-0.5,7.3
			c0.4,0.3,0.7,0.6,1.1,0.9c-0.3-0.2-0.7-0.4-1.1-0.6l-0.2,2.6l10.5,0.7c-0.7-0.5-1.4-1-2-1.4C249.5,284.6,246.4,281.4,244.6,277.5z
			"/>
		<g>
			<path class="st1" d="M366.9,159.1c-0.3-2.2-2.3-4.9-4.7-5.6c-2.5-0.7-4.2-0.9-6.3,0.3c-0.6,0.4-1.6,1-2.6,1.9l-0.2,3.3
				c1.5-2.7,4.6-4.9,7.8-3.8c5.5,1.8,4.3,5.7,3.6,7.2c-1.4,2.8-5.9,3.8-7.1,0.9c-1.3-3.1,2.1-3.4,2.1-3.4s-0.9,0.8,0.1,2
				c0.7,0.8,2.2,0.2,2.8-1.1c0.5-1.2-0.3-2.8-2.4-3.2c-1.7-0.3-4.4,0.9-4.8,3.5c-0.4,2.5,0.6,3.6,2.2,4.8c1.5,1.2,4.9,1.8,7,0
				C366.5,164.1,367.3,162,366.9,159.1 M353.8,146.5l-0.4,6.5c1-0.8,1.9-1.2,1.9-1.2c3.7-1.8,6.8-0.6,8.6,0.1c2.9,1.1,5,3.6,5.8,6
				c1,2.8-0.4,8-4.4,10.4c-0.2,0.1-0.4,0.2-0.5,0.3l8.4,0.6l1.4-21.3L353.8,146.5z M352.7,164.3l-0.2,2.5c0.1,0.1,0.2,0.2,0.4,0.3
				c-0.1-0.1-0.2-0.1-0.4-0.2l-0.1,0.9l3.7,0.2c-0.3-0.2-0.5-0.3-0.7-0.5C354.4,166.8,353.3,165.7,352.7,164.3z"/>
			<text transform="matrix(0.9979 6.548199e-02 -6.548199e-02 0.9979 357.0581 143.4435)" class="st1 st3 st4">A</text>
		</g>
		<g>
			<path class="st1" d="M185.1,358.3c0.3,2.2,2.3,4.9,4.7,5.6c2.5,0.7,4.2,0.9,6.3-0.3c0.6-0.4,1.6-1,2.6-1.9l0.2-3.3
				c-1.5,2.7-4.6,4.9-7.8,3.8c-5.5-1.8-4.3-5.7-3.6-7.2c1.4-2.8,5.9-3.8,7.1-0.9c1.3,3.1-2.1,3.4-2.1,3.4s0.9-0.8-0.1-2
				c-0.7-0.8-2.2-0.2-2.8,1.1c-0.5,1.2,0.3,2.8,2.4,3.2c1.7,0.3,4.4-0.9,4.8-3.5c0.4-2.5-0.6-3.6-2.2-4.8c-1.5-1.2-4.9-1.8-7,0
				C185.5,353.3,184.7,355.4,185.1,358.3 M198.2,370.9l0.4-6.5c-1,0.8-1.9,1.2-1.9,1.2c-3.7,1.8-6.8,0.6-8.6-0.1
				c-2.9-1.1-5-3.6-5.8-6c-1-2.8,0.4-8,4.4-10.4c0.2-0.1,0.4-0.2,0.5-0.3l-8.4-0.6l-1.4,21.3L198.2,370.9z M199.3,353.1l0.2-2.5
				c-0.1-0.1-0.2-0.2-0.4-0.3c0.1,0.1,0.2,0.1,0.4,0.2l0.1-0.9l-3.7-0.2c0.3,0.2,0.5,0.3,0.7,0.5
				C197.6,350.7,198.7,351.8,199.3,353.1z"/>
			<text transform="matrix(-0.9979 -6.548199e-02 6.548199e-02 -0.9979 194.927 373.9891)" class="st1 st3 st4">A</text>
		</g>
	</g>
</g>
</svg>
